OpenSim_Sub10_CSBaseline_LCS.mot
version=1
nRows=58
nColumns=11
inDegrees=no
endheader
time	Bot_Shank	2nd_Bot_Shank	2nd_Top_Shank	Top_Shank	Bot_Thigh	Med_Thigh	Top_Thigh	BNOx	BNOy	BNOZ
0	10399.21568670	10529.08867965	11161.38723435	11233.66937717	13310.78126852	14264.37351163	14798.20060232	200.90427837	-80.74532763	133.75014265
0.01000000	10399.20651029	10528.59842153	11161.36644413	11233.54670670	13309.43821770	14263.13139342	14794.80478796	200.90826716	-80.74433349	133.78065128
0.02000000	10399.18434357	10528.13032846	11161.32298509	11233.41977929	13307.84257570	14262.16014743	14791.93927169	200.91272577	-80.74380138	133.80377435
0.03000000	10399.15058234	10527.71012738	11161.26021544	11233.29476329	13306.08980785	14261.56830826	14789.66627545	200.91794139	-80.74393668	133.81879955
0.04000000	10399.10662238	10527.36354519	11161.18149339	11233.17782706	13304.27537949	14261.46441050	14788.04802117	200.92420118	-80.74494473	133.82501457
0.05000000	10399.05385949	10527.11630880	11161.09017713	11233.07513897	13302.49475595	14261.95698874	14787.14673079	200.93179232	-80.74703091	133.82170713
0.06000000	10398.99369017	10526.99413814	11160.98962464	11232.99286578	13300.84337953	14263.15452319	14787.02459118	200.94100186	-80.75040049	133.80816519
0.07000000	10398.92846475	10527.01349315	11160.88290062	11232.93505308	13299.38609552	14265.09329492	14787.69727082	200.95195729	-80.75514374	133.78403836
0.08000000	10398.86336768	10527.16331887	11160.77219824	11232.89944363	13298.09683457	14267.59505517	14789.04221510	200.96431189	-80.76100922	133.75005089
0.09000000	10398.80410739	10527.42747328	11160.65954955	11232.88261491	13296.93271856	14270.44189194	14790.91131406	200.97763131	-80.76768227	133.70712567
0.10000000	10398.75639233	10527.78981436	11160.54698661	11232.88114440	13295.85086939	14273.41589322	14793.15645774	200.99148118	-80.77484827	133.65618562
0.11000000	10398.72593094	10528.23420009	11160.43654148	11232.89160959	13294.80840895	14276.29914700	14795.62953622	201.00542712	-80.78219258	133.59815364
0.12000000	10398.71843165	10528.74448844	11160.33024620	11232.91058795	13293.76245914	14278.87374125	14798.18243953	201.01903479	-80.78940057	133.53395264
0.13000000	10398.73960292	10529.30453740	11160.23013283	11232.93465697	13292.67014184	14280.92176397	14800.66705773	201.03186980	-80.79615760	133.46450551
0.14000000	10398.79515317	10529.89820493	11160.13823343	11232.96039412	13291.48857897	14282.22530315	14802.93528086	201.04349779	-80.80214903	133.39073518
0.15000000	10398.89079084	10530.50934903	11160.05658004	11232.98437688	13290.17489240	14282.56644677	14804.83899899	201.05348440	-80.80706024	133.31356454
0.16000000	10399.03218544	10531.12183129	11159.98720695	11233.00318890	13288.68644925	14281.72809098	14806.23041710	201.06139588	-80.81057742	133.23391604
0.17000000	10399.21675113	10531.72028008	11159.93262119	11233.01471909	13287.03260340	14279.66445985	14807.02850676	201.06692897	-80.81256562	133.15261474
0.18000000	10399.42348331	10532.29103455	11159.89638452	11233.01976865	13285.33869800	14276.71203272	14807.30120463	201.07007159	-80.81328891	133.07026837
0.19000000	10399.62888520	10532.82066535	11159.88220144	11233.01953283	13283.74577033	14273.25901058	14807.13660332	201.07085104	-80.81306533	132.98745530
0.20000000	10399.80946004	10533.29574312	11159.89377643	11233.01520687	13282.39485767	14269.69359442	14806.62279544	201.06929464	-80.81221291	132.90475385
0.21000000	10399.94171105	10533.70283848	11159.93481397	11233.00798602	13281.42699731	14266.40398522	14805.84787358	201.06542969	-80.81104972	132.82274239
0.22000000	10400.00214787	10534.02852464	11160.00901552	11232.99906544	13280.98318641	14263.77829031	14804.89991909	201.05928357	-80.80989374	132.74199892
0.23000000	10399.97579504	10534.26274877	11160.11605450	11232.98951794	13281.15121058	14262.08034966	14803.85206606	201.05097078	-80.80898678	132.66267313
0.24000000	10399.87297787	10534.40548346	11160.24363561	11232.98005290	13281.86074442	14261.20475955	14802.73303485	201.04086472	-80.80834431	132.58364192
0.25000000	10399.70869943	10534.45855487	11160.37725072	11232.97131248	13283.01223023	14260.97784883	14801.56333438	201.02938666	-80.80793995	132.50354688
0.26000000	10399.49796278	10534.42378913	11160.50239171	11232.96393883	13284.50611033	14261.22594633	14800.36347360	201.01695787	-80.80774731	132.42102958
0.27000000	10399.25577099	10534.30301238	11160.60455044	11232.95857412	13286.24282704	14261.77538088	14799.15396145	201.00399961	-80.80774001	132.33473161
0.28000000	10398.99712711	10534.09805077	11160.66921878	11232.95586051	13288.12282266	14262.45248132	14797.95530685	200.99093317	-80.80789168	132.24329457
0.29000000	10398.73703420	10533.81073042	11160.68188859	11232.95644016	13290.04653951	14263.08357648	14796.78801875	200.97817979	-80.80817592	132.14536002
0.30000000	10398.49049533	10533.44287749	11160.62805175	11232.96095524	13291.91441990	14263.49499520	14795.67260608	200.96616076	-80.80856636	132.03956956
0.31000000	10398.27251355	10532.99631810	11160.49320013	11232.97004790	13293.62690615	14263.51306632	14794.62957779	200.95529734	-80.80903662	131.92456478
0.32000000	10398.09809193	10532.47287841	11160.26282559	11232.98436032	13295.08444056	14262.96411866	14793.67944280	200.94601079	-80.80956031	131.79898725
0.33000000	10397.98218887	10531.87443222	11159.92250022	11233.00452655	13296.18775602	14261.67506995	14792.84266911	200.93872158	-80.81011099	131.66148593
0.34000000	10397.93029578	10531.21295888	11159.47480048	11233.02946422	13296.89918706	14259.59768121	14792.13104303	200.93367747	-80.81064975	131.51227062
0.35000000	10397.92678194	10530.52298455	11158.96024188	11233.05426137	13297.31850957	14256.96225532	14791.53698091	200.93074095	-80.81110989	131.35503359
0.36000000	10397.95315868	10529.84208612	11158.42447335	11233.07348786	13297.56409619	14254.03678373	14791.05027823	200.92972240	-80.81142090	131.19393835
0.37000000	10397.99093732	10529.20784047	11157.91314380	11233.08171356	13297.75431953	14251.08925789	14790.66073047	200.93043216	-80.81151231	131.03314837
0.38000000	10398.02162918	10528.65782451	11157.47190215	11233.07350834	13298.00755221	14248.38766922	14790.35813311	200.93268062	-80.81131363	130.87682713
0.39000000	10398.02674559	10528.22961512	11157.14639730	11233.04344205	13298.44216686	14246.20000918	14790.13228161	200.93627812	-80.81075438	130.72913813
0.40000000	10397.98784057	10527.96069252	11156.98218054	11232.98610140	13299.17623239	14244.79374441	14789.97299195	200.94103522	-80.80976439	130.59423455
0.41000000	10397.89551967	10527.86804440	11157.00410211	11232.89964389	13300.26343130	14244.32508550	14789.87442478	200.94680288	-80.80834118	130.47408557
0.42000000	10397.76058366	10527.92293688	11157.19082562	11232.79019387	13301.61379145	14244.70201610	14789.84043431	200.95352214	-80.80663328	130.36578762
0.43000000	10397.59656581	10528.09044965	11157.51476528	11232.66495367	13303.11790330	14245.79893313	14789.87618634	200.96114626	-80.80480966	130.26577780
0.44000000	10397.41699942	10528.33566241	11157.94833533	11232.53112563	13304.66635733	14247.49023351	14789.98684669	200.96962850	-80.80303927	130.17049322
0.45000000	10397.23541778	10528.62365485	11158.46394997	11232.39591208	13306.14974399	14249.65031416	14790.17758116	200.97892212	-80.80149108	130.07637097
0.46000000	10397.06535419	10528.91950666	11159.03402346	11232.26651535	13307.45865375	14252.15357198	14790.45355557	200.98898037	-80.80033405	129.97984817
0.47000000	10396.92034193	10529.18829753	11159.63097000	11232.15013777	13308.48367707	14254.87440389	14790.81993572	200.99975650	-80.79973714	129.87736191
0.48000000	10396.81391429	10529.39510717	11160.22720382	11232.05398168	13309.11540440	14257.68720682	14791.28188742	201.01120377	-80.79986932	129.76534929
0.49000000	10396.75960456	10529.50501525	11160.79513915	11231.98524940	13309.24442622	14260.46637768	14791.84457649	201.02327544	-80.80089955	129.64024742
0.50000000	10396.77094604	10529.48310148	11161.30719022	11231.95114328	13308.76133299	14263.08631338	14792.51316872	201.03592476	-80.80299678	129.49849341
0.51000000	10396.86147201	10529.29444555	11161.73577125	11231.95886564	13307.55671517	14265.42141084	14793.29282994	201.04910498	-80.80632999	129.33652435
0.52000000	10397.04466577	10528.90428250	11162.05336484	11232.01558836	13305.52165192	14267.34628449	14794.18872667	201.06276948	-80.81106652	129.15078872
0.53000000	10397.32340948	10528.31078179	11162.24695081	11232.12202662	13302.65082534	14268.78166216	14795.20617917	201.07689615	-80.81703066	128.94014726
0.54000000	10397.67693287	10527.58559395	11162.33585407	11232.26448990	13299.17006945	14269.75115676	14796.35085067	201.09151760	-80.82328136	128.70884269
0.55000000	10398.08126532	10526.81031194	11162.34377608	11232.42733848	13295.33649462	14270.29230222	14797.62845079	201.10667384	-80.82877400	128.46184601
0.56000000	10398.51243620	10526.06652876	11162.29441828	11232.59493263	13291.40721121	14270.44263247	14799.04468918	201.12240488	-80.83246395	128.20412817
0.57000000	10398.94647490	10525.43583737	11162.21148212	11232.75163264	13287.63932960	14270.23968145	14800.60527545	201.13875073	-80.83330658	127.94066015
